PathFileType	3	(X/Y/Z)	RCH0000005 BBF 05.c3d
DataRate	CameraRate	NumFrames	NumMarkers	Units	OrigDataRate	OrigDataStartFrame	OrigNumFrames
100.0	100.0	15	23	mm	100.0	197	453
Frame#	Time	T2			T10			MAN			LASI			RASI			LPSI			RPSI			LPAT			LKNE			LANK			LMED			LHEE			LTOE			RPAT			RKNE			RANK			RMED			RHEE			RTOE			LTHI			LTIB			RTHI			RTIB			
		X1	Y1	Z1	X2	Y2	Z2	X3	Y3	Z3	X4	Y4	Z4	X5	Y5	Z5	X6	Y6	Z6	X7	Y7	Z7	X8	Y8	Z8	X9	Y9	Z9	X10	Y10	Z10	X11	Y11	Z11	X12	Y12	Z12	X13	Y13	Z13	X14	Y14	Z14	X15	Y15	Z15	X16	Y16	Z16	X17	Y17	Z17	X18	Y18	Z18	X19	Y19	Z19	X20	Y20	Z20	X21	Y21	Z21	X22	Y22	Z22	X23	Y23	Z23	

197	1.960	376.09810	-11.04486	1318.63423	338.36916	-3.13035	1104.60217	503.70785	1.40883	1263.80271	444.63483	91.89083	899.82006	477.48087	-95.81368	913.29095	313.69169	17.17639	943.65360	324.58516	-69.56762	946.33585	554.40481	78.51272	504.10102	480.25402	132.11017	451.97542	242.13058	105.88027	148.50690	265.49988	26.32210	148.81209	188.86750	65.77664	164.88487	292.00043	84.35607	114.17629	501.84878	-26.59471	518.74805	458.52121	-103.77325	446.26765	379.66912	-95.04047	68.61757	377.08901	-12.41268	71.37566	318.28300	-73.44453	53.27327	432.11183	-63.24652	62.23529	446.09090	190.39175	611.24472	353.26913	185.98403	326.61301	466.40594	-187.66669	614.13074	422.84925	-172.15644	296.10980	
198	1.970	387.99583	-10.59679	1320.46893	350.06627	-2.85902	1106.52241	515.49867	2.44049	1265.91761	456.33515	92.63239	902.19446	488.25940	-95.21745	914.41468	325.10630	18.38530	945.93412	335.75091	-68.38054	948.38591	572.39005	79.95601	510.86232	499.93645	134.14636	457.19706	276.47246	107.65184	141.76516	301.41380	28.43383	141.79572	222.84685	65.85354	154.17040	328.87769	88.08030	110.25814	504.17739	-27.32381	517.77049	459.47244	-104.69821	446.53348	379.71119	-95.34012	69.02594	377.31810	-12.73283	71.98658	318.38316	-73.66103	53.92325	432.23807	-63.61067	62.45338	464.06319	192.53656	616.20861	376.34648	186.87752	326.57680	470.75264	-187.73738	614.58339	422.87781	-172.85111	296.43285	
199	1.980	399.94798	-10.11061	1322.12484	361.71370	-2.50963	1108.27022	527.33099	3.39649	1267.75046	468.06157	93.38872	904.34421	498.84395	-94.63485	915.36154	336.46540	19.75151	947.96844	346.75038	-67.03577	950.18808	589.62927	81.23566	517.18492	518.92086	136.05210	462.07016	311.64120	109.64256	134.77012	337.89385	30.71332	134.76067	257.80286	66.40429	143.19360	366.33331	91.75422	106.27696	506.52099	-27.95482	516.79692	460.54721	-105.50926	446.82632	379.78232	-95.59419	69.48193	377.56583	-12.99915	72.59357	318.50139	-73.84034	54.64298	432.38593	-63.93600	62.68764	481.64187	194.58499	620.81057	399.47244	187.84096	325.96071	475.16941	-187.66244	615.00762	423.07217	-173.42179	296.79532	
200	1.990	411.96055	-9.57911	1323.56761	373.31279	-2.06461	1109.80948	539.20947	4.27667	1269.24781	479.83038	94.15641	906.21865	509.24386	-94.06929	916.11791	347.78059	21.28276	949.70125	357.59238	-65.52345	951.70255	606.12191	82.34913	522.93625	537.19914	137.81673	466.45753	347.59584	111.88408	127.69790	374.81963	33.16894	127.88651	293.68294	67.51874	132.16347	404.27936	95.34169	102.39107	508.97595	-28.48277	515.81582	461.82744	-106.18999	447.12467	379.87981	-95.79444	69.98098	377.83538	-13.20330	73.19344	318.63922	-73.96965	55.42516	432.55403	-64.21800	62.93889	498.69178	196.51377	624.90052	422.77059	188.94250	324.74351	479.70138	-187.43871	615.38321	423.47688	-173.85715	297.18225	
201	2.000	424.03688	-8.99215	1324.76916	384.86595	-1.50746	1111.11025	551.13637	5.08604	1270.36731	491.65773	94.93065	907.77649	519.47160	-93.52483	916.67467	359.06544	22.98300	951.08775	368.28947	-63.83736	952.89794	621.87491	83.29115	528.00506	554.77375	139.43115	470.24399	384.27060	114.39606	120.72495	412.05728	35.79972	121.33451	330.40355	69.26143	121.27870	442.61764	98.80988	98.75463	511.63013	-28.90808	514.81569	463.37850	-106.72837	447.40712	380.00002	-95.93147	70.51638	378.13054	-13.33613	73.78319	318.79718	-74.03427	56.26116	432.73983	-64.45090	63.20526	515.09075	198.30802	628.34596	446.34689	190.24134	322.94255	484.37449	-187.07054	615.69092	424.11932	-174.15042	297.57834	
202	2.010	436.17763	-8.33710	1325.70816	396.37707	-0.82340	1112.14936	563.11164	5.83445	1271.07919	503.55950	95.70553	908.98699	529.54346	-93.00570	917.02699	370.33569	24.85210	952.09477	378.85846	-61.97539	953.75190	636.90388	84.05352	532.30502	571.65922	140.88842	473.34075	421.56701	117.18349	114.02141	449.45652	38.59479	115.24254	367.84542	71.66749	110.72358	481.23119	102.12929	95.51021	514.56145	-29.23515	513.78531	465.25012	-107.11602	447.65304	380.13859	-95.99505	71.08021	378.45482	-13.38815	74.35997	318.97434	-74.01843	57.14212	432.93953	-64.62738	63.48262	530.74239	199.96259	631.03969	470.27668	191.78151	320.61371	489.19865	-186.56828	615.91343	425.01279	-174.29851	297.96877	
203	2.020	448.38074	-7.59938	1326.37045	407.85184	-0.00020	1112.91071	575.13320	6.53595	1271.36723	515.55112	96.47456	909.83070	539.48015	-92.51564	917.17398	381.60928	26.88560	952.70138	389.32064	-59.93986	954.25120	651.23453	84.62524	535.77773	587.88361	142.18427	475.68862	459.34723	120.23435	107.74401	486.84837	41.53279	109.72093	405.84970	74.73875	100.66427	519.97677	105.27328	92.78101	517.83676	-29.47116	512.71381	467.47800	-107.34788	447.84314	380.29076	-95.97490	71.66437	378.81073	-13.35026	74.92140	319.16816	-73.90660	58.06008	433.14825	-64.73874	63.76539	545.58722	201.48225	632.90658	494.59402	193.58649	317.84718	494.17169	-185.94679	616.03617	426.16018	-174.30141	298.33990	
204	2.030	460.64172	-6.76315	1326.74903	419.29800	0.97128	1113.38533	587.19728	7.20814	1271.22910	527.64720	97.23138	910.29972	549.30716	-92.05723	917.11822	392.90610	29.07467	952.89902	399.70181	-57.73771	954.39169	664.90436	84.99364	538.39489	603.48961	143.31750	477.26006	497.42932	123.51785	102.02859	524.04399	44.58145	104.84947	444.21528	78.44089	91.24506	558.67926	108.21743	90.66299	521.51107	-29.62514	511.59057	470.08578	-107.42203	447.95980	380.45189	-95.86187	72.26175	379.19919	-13.21490	75.46616	319.37458	-73.68519	59.00909	433.36044	-64.77571	64.04761	559.61139	202.88050	633.90879	519.28476	195.65588	314.75952	499.28389	-185.22384	616.04773	427.55799	-174.16172	298.67987	
205	2.040	472.95394	-5.81209	1326.84400	430.72542	2.09654	1113.57124	599.29887	7.87129	1270.67601	539.86117	97.97043	910.39762	559.05487	-91.63120	916.86535	404.24763	31.40628	952.69117	410.03205	-55.38043	954.17784	677.96419	85.14626	540.15945	618.53496	144.29029	478.05981	535.58548	126.98371	96.98282	560.83504	47.69743	100.67536	482.69805	82.70185	82.58471	597.12887	110.93866	89.21746	525.62732	-29.70717	510.40527	473.08755	-107.33965	447.98748	380.61812	-95.64939	72.86740	379.61928	-12.97746	75.99482	319.58847	-73.34461	59.98641	433.57053	-64.72969	64.32423	572.85181	204.17740	634.04894	544.28391	197.96423	311.48271	504.52288	-184.41856	615.94015	429.20031	-173.88452	298.97920	
206	2.050	485.30914	-4.73025	1326.66217	442.14611	3.37717	1113.47307	611.43221	8.54752	1269.73192	552.20488	98.68773	910.13884	568.75844	-91.23587	916.42354	415.65633	33.86352	952.09268	420.34513	-52.88380	953.62225	690.47948	85.07375	541.10561	633.09193	145.10830	478.12403	573.54374	130.56277	92.67958	596.99576	50.82668	97.21233	521.01259	87.41245	74.77306	635.08189	113.41463	88.46494	530.21679	-29.72769	509.14797	476.49063	-107.10504	447.91305	380.78700	-95.33507	73.47967	380.06830	-12.63750	76.51088	319.80431	-72.88136	60.99365	433.77386	-64.59435	64.59236	585.39693	205.39665	633.37056	569.47770	200.46241	308.15169	509.87843	-183.54996	615.70905	431.08248	-173.47746	299.23138	
207	2.060	497.69799	-3.50281	1326.21662	453.57400	4.81061	1113.10162	623.59135	9.25982	1268.43214	564.68816	99.38150	909.54785	578.45734	-90.86674	915.80323	427.15495	36.42617	951.12869	430.67779	-50.26750	952.74478	702.53094	84.77302	541.29726	647.24563	145.78048	477.51793	610.99364	134.16936	89.15201	632.28679	53.90579	94.44097	558.83685	92.43002	67.86818	672.26513	115.62338	88.38106	535.30029	-29.69679	507.80940	480.29852	-106.72542	447.72623	380.95830	-94.92205	74.10140	380.54226	-12.19998	77.02192	320.01712	-72.29987	62.03809	433.96762	-64.36738	64.85248	597.38292	206.56220	631.95584	594.70988	203.08130	304.89181	515.34704	-182.63547	615.35348	433.20400	-172.95084	299.43340	
208	2.070	510.11066	-2.11691	1325.52602	465.02459	6.39031	1112.47325	635.77058	10.03116	1266.82166	577.31848	100.05272	908.65795	588.19456	-90.51624	915.01674	438.76562	39.07128	949.83336	441.06869	-47.55452	951.57173	714.21431	84.25029	540.82493	661.09116	146.31843	476.33178	647.59582	137.70548	86.39088	666.46071	56.86425	92.31060	595.82018	97.58530	61.89475	708.38401	117.54355	88.89548	540.89004	-29.62358	506.38148	484.51404	-106.21073	447.42007	381.13459	-94.42006	74.74090	381.03685	-11.67583	77.54075	320.22354	-71.61358	63.13388	434.15190	-64.05208	65.10943	608.98520	207.69503	629.92042	619.79170	205.73718	301.80808	520.93588	-181.68980	614.87578	435.57069	-172.31777	299.58633	
209	2.080	522.53747	-0.56225	1324.61390	476.51450	8.10588	1111.60919	647.96495	10.88363	1264.95305	590.10064	100.70544	907.50992	598.01556	-90.17379	914.07816	450.50904	41.77394	948.24836	451.55722	-44.77051	950.13479	725.63888	83.52321	539.80121	674.72981	146.73540	474.67558	682.99525	141.06676	84.34509	699.26902	59.62798	90.74281	631.59469	102.69287	56.84417	743.13381	119.15513	89.89438	546.99230	-29.51538	504.85791	489.14231	-105.57301	446.99121	381.32193	-93.84564	75.41289	381.54888	-11.08208	78.08635	320.42315	-70.84504	64.30325	434.33061	-63.65854	65.37308	620.40603	208.81014	627.40566	644.51459	208.33823	298.97730	526.66586	-180.72397	614.28116	438.19598	-171.59410	299.69587	
210	2.090	534.96939	1.16830	1323.50789	488.06084	9.94352	1110.53483	660.17055	11.83757	1262.88422	603.03649	101.34686	906.15045	607.96700	-89.82599	913.00317	462.40351	44.50800	946.42130	462.18218	-41.94301	948.46999	736.92456	82.62129	538.35475	688.26436	147.04486	472.67264	716.83727	144.14978	82.92578	730.47028	62.12379	89.63665	665.78969	107.56422	52.67680	776.21320	120.44078	91.22697	553.61036	-29.37699	503.23475	494.19355	-104.82573	446.44016	381.53032	-93.22158	76.13926	382.07818	-10.44121	78.68462	320.61989	-70.02468	65.57754	434.51224	-63.20400	65.65858	631.85916	209.91426	624.56898	668.66451	210.79157	296.44429	532.57370	-179.74471	613.57721	441.10123	-170.79801	299.77284	
211	2.100	547.39848	3.07839	1322.23879	499.68053	11.88655	1109.27895	672.38480	12.91087	1260.67619	616.12485	101.98718	904.63047	618.09515	-89.45717	911.80897	474.46418	47.24690	944.40404	472.98034	-39.10072	946.61657	748.19762	81.58444	536.62315	701.79409	147.25880	470.45243	748.78516	146.85998	82.01400	759.83880	64.28458	88.87552	698.04835	112.02257	49.32666	807.33896	121.38760	92.71583	560.74798	-29.20987	501.51094	499.68556	-103.98284	445.77109	381.77437	-92.57537	76.94948	382.62989	-9.77975	79.36854	320.82385	-69.18826	66.99788	434.71047	-62.71243	65.98623	643.55327	211.00449	621.57307	692.03693	213.01004	294.22245	538.71279	-178.75424	612.77318	444.31546	-169.94935	299.83348	
